<svg xmlns="http://www.w3.org/2000/svg" viewBox="0 0 48 32" fill="none"><rect width="48" height="32" rx="4" fill="#010101"/><circle cx="13" cy="11" r="4.5" fill="#E6191E"/><rect x="8" y="18" width="10" height="6" rx="1.5" fill="#E6191E"/><path d="M22.5 10H25.2C26.8 10 27.8 10.8 27.8 12.2C27.8 13.3 27.1 14 26.2 14.2V14.3C27.2 14.4 28 15.2 28 16.4C28 17.9 26.8 18.8 25.2 18.8H22.5V10ZM24.8 13.5C25.5 13.5 25.9 13.1 25.9 12.5C25.9 11.9 25.5 11.5 24.8 11.5H24.2V13.5H24.8ZM25 17.3C25.7 17.3 26.2 16.9 26.2 16.2C26.2 15.5 25.7 15.1 25 15.1H24.2V17.3H25ZM29.5 10H31.2V17.3H34.5V18.8H29.5V10ZM35.8 10H37.5V18.8H35.8V10ZM39.2 10H40.9V14.2L43.5 10H45.5L42.8 14.2L45.8 18.8H43.5L41.2 15L40.9 15.4V18.8H39.2V10Z" fill="white"/></svg>
