<svg xmlns="http://www.w3.org/2000/svg" viewBox="0 0 48 32" fill="none"><rect width="48" height="32" rx="4" fill="#FFCD00"/><path d="M8 11.5H10V20.5H8V11.5ZM12 14H14V14.8C14.5 14.2 15.3 13.8 16.2 13.8C18 13.8 19 15 19 16.8V20.5H17V17.2C17 16.2 16.5 15.7 15.6 15.7C14.8 15.7 14.2 16.2 14 16.8V20.5H12V14ZM21 10H25C27.3 10 28.5 11.3 28.5 13C28.5 14.7 27.3 16 25 16H23V20.5H21V10ZM24.7 14.3C25.8 14.3 26.4 13.8 26.4 13C26.4 12.2 25.8 11.7 24.7 11.7H23V14.3H24.7ZM32 13.8C34 13.8 35.5 15.2 35.5 17.3C35.5 19.3 34 20.7 32 20.7C30 20.7 28.5 19.3 28.5 17.3C28.5 15.2 30 13.8 32 13.8ZM32 19C33 19 33.5 18.2 33.5 17.3C33.5 16.3 33 15.5 32 15.5C31 15.5 30.5 16.3 30.5 17.3C30.5 18.2 31 19 32 19ZM40 15.7C39.5 15.5 38.8 15.3 38.2 15.3C37.6 15.3 37.2 15.5 37.2 15.9C37.2 16.8 40.5 16.5 40.5 18.8C40.5 20.2 39.3 20.7 37.8 20.7C36.8 20.7 36 20.5 35.3 20.1L35.8 18.5C36.3 18.8 37.1 19.1 37.8 19.1C38.4 19.1 38.7 18.9 38.7 18.5C38.7 17.5 35.3 17.8 35.3 15.7C35.3 14.3 36.5 13.8 37.8 13.8C38.8 13.8 39.5 14 40.2 14.3L40 15.7Z" fill="#3D3D3D"/></svg>
