<svg xmlns="http://www.w3.org/2000/svg" viewBox="0 0 48 32" fill="none"><rect width="48" height="32" rx="4" fill="#1A1F71"/><path d="M19.5 11L16.5 21H13.5L11.3 13.3C11.2 12.9 11 12.7 10.5 12.5C9.7 12.1 8.4 11.7 7.5 11.5L7.6 11H11.8C12.4 11 12.9 11.4 13 12L14 17.5L16.4 11H19.5ZM28.5 17.5C28.5 14.4 24.2 14.2 24.2 12.8C24.3 12.3 24.7 11.8 25.8 11.7C26.3 11.6 27.6 11.6 29.1 12.3L29.7 11.2C28.9 10.9 27.8 10.5 26.5 10.5C23.7 10.5 21.7 12 21.7 14.1C21.7 15.7 23.1 16.5 24.1 17C25.2 17.6 25.5 18 25.5 18.5C25.5 19.3 24.5 19.6 23.6 19.6C22 19.6 21.1 19.2 20.3 18.8L19.7 20C20.6 20.4 22.1 20.8 23.5 20.8C26.5 20.8 28.5 19.3 28.5 17.5ZM35.5 21H38L35.8 11H33.3C32.8 11 32.3 11.3 32.1 11.8L28 21H30.8L31.4 19.3H34.8L35.5 21ZM32.1 17.1L33.5 13.3L34.3 17.1H32.1ZM23 11L20.5 21H17.8L20.3 11H23Z" fill="white"/></svg>
